<svg width="60" height="50" viewBox="0 0 60 50" fill="none" xmlns="http://www.w3.org/2000/svg">
<g filter="url(#filter0_d)">
<path d="M16.1874 17.7445C16.9249 17.7445 17.5249 18.2469 17.5249 18.8644C17.5249 19.4253 17.9796 19.8801 18.5405 19.8801C19.1015 19.8801 19.5562 19.4253 19.5562 18.8644C19.5562 17.4579 18.5657 16.2638 17.2031 15.8599V15.7188C17.2031 15.1579 16.7484 14.7031 16.1874 14.7031C15.6265 14.7031 15.1718 15.1579 15.1718 15.7188V15.8599C13.8092 16.2639 12.8187 17.4579 12.8187 18.8644C12.8187 20.6021 14.3299 22.0156 16.1874 22.0156C16.9249 22.0156 17.5249 22.518 17.5249 23.1355C17.5249 23.753 16.9249 24.2554 16.1874 24.2554C15.45 24.2554 14.85 23.753 14.85 23.1355C14.85 22.5746 14.3953 22.1198 13.8343 22.1198C13.2734 22.1198 12.8187 22.5746 12.8187 23.1355C12.8187 24.542 13.8092 25.7361 15.1718 26.14V26.2813C15.1718 26.8421 15.6265 27.2969 16.1874 27.2969C16.7484 27.2969 17.2031 26.8421 17.2031 26.2813V26.1401C18.5657 25.7361 19.5562 24.5421 19.5562 23.1356C19.5562 21.3979 18.045 19.9844 16.1874 19.9844C15.45 19.9844 14.85 19.482 14.85 18.8646C14.85 18.2471 15.45 17.7445 16.1874 17.7445Z" fill="#40D1F1"/>
<path d="M28.375 21C28.375 19.4563 28.09 17.9515 27.5279 16.5275C27.3219 16.0057 26.7322 15.7498 26.2103 15.9556C25.6886 16.1615 25.4325 16.7514 25.6385 17.2732C26.1065 18.4588 26.3438 19.7127 26.3438 21C26.3438 26.6003 21.7877 31.1562 16.1875 31.1562C10.5873 31.1562 6.03125 26.6001 6.03125 21C6.03125 15.3998 10.5873 10.8437 16.1875 10.8437C17.4671 10.8437 18.714 11.0784 19.8937 11.5409C20.4159 11.7458 21.0052 11.4884 21.21 10.9661C21.4148 10.4439 21.1575 9.85462 20.6352 9.64987C19.2183 9.09423 17.7219 8.81249 16.1875 8.81249C9.46731 8.81249 4 14.2798 4 21C4 27.7202 9.46731 33.1875 16.1875 33.1875C22.9077 33.1875 28.375 27.7202 28.375 21Z" fill="#40D1F1"/>
<path d="M43.8125 17.7445C44.5499 17.7445 45.1499 18.2469 45.1499 18.8644C45.1499 19.4253 45.6046 19.8801 46.1656 19.8801C46.7265 19.8801 47.1812 19.4253 47.1812 18.8644C47.1812 17.4579 46.1907 16.2638 44.8281 15.8599V15.7188C44.8281 15.1579 44.3734 14.7031 43.8125 14.7031C43.2515 14.7031 42.7968 15.1579 42.7968 15.7188V15.8599C41.4342 16.2639 40.4437 17.4579 40.4437 18.8644C40.4437 20.6021 41.9549 22.0156 43.8125 22.0156C44.5499 22.0156 45.1499 22.518 45.1499 23.1355C45.1499 23.753 44.5499 24.2554 43.8125 24.2554C43.075 24.2554 42.475 23.753 42.475 23.1355C42.475 22.5746 42.0203 22.1198 41.4594 22.1198C40.8984 22.1198 40.4437 22.5746 40.4437 23.1355C40.4437 24.542 41.4342 25.7361 42.7968 26.14V26.2813C42.7968 26.8421 43.2515 27.2969 43.8125 27.2969C44.3734 27.2969 44.8281 26.8421 44.8281 26.2813V26.1401C46.1907 25.7361 47.1812 24.5421 47.1812 23.1356C47.1812 21.3979 45.67 19.9844 43.8125 19.9844C43.075 19.9844 42.475 19.482 42.475 18.8646C42.475 18.2471 43.075 17.7445 43.8125 17.7445Z" fill="#40D1F1"/>
<path d="M43.8125 8.81249C37.0923 8.81249 31.625 14.2798 31.625 21C31.625 27.7202 37.0923 33.1875 43.8125 33.1875C50.5327 33.1875 56 27.7202 56 21C56 14.2798 50.5327 8.81249 43.8125 8.81249ZM43.8125 31.1562C38.2123 31.1562 33.6562 26.6003 33.6562 21C33.6562 15.3997 38.2123 10.8437 43.8125 10.8437C49.4127 10.8437 53.9688 15.3997 53.9688 21C53.9688 26.6003 49.4127 31.1562 43.8125 31.1562Z" fill="#40D1F1"/>
<path d="M38.6953 35.8851C38.2987 35.4886 37.6556 35.4886 37.2589 35.8851C36.8623 36.2817 36.8623 36.9248 37.2589 37.3215L37.6657 37.7283H19.8821C19.3212 37.7283 18.8665 38.1831 18.8665 38.7439C18.8665 39.3047 19.3212 39.7595 19.8821 39.7595H37.6657L37.2589 40.1663C36.8623 40.5629 36.8623 41.206 37.2589 41.6027C37.4573 41.8009 37.7172 41.9001 37.9771 41.9001C38.237 41.9001 38.497 41.8009 38.6952 41.6027L40.8357 39.4621C41.2323 39.0655 41.2323 38.4224 40.8357 38.0257L38.6953 35.8851Z" fill="#40D1F1"/>
<path d="M21.3045 6.11479C21.5029 6.31304 21.7628 6.41227 22.0227 6.41227C22.2826 6.41227 22.5426 6.31304 22.7408 6.11479C23.1374 5.71819 23.1374 5.0751 22.7408 4.67839L22.3341 4.27164H40.1177C40.6786 4.27164 41.1333 3.81684 41.1333 3.25601C41.1333 2.69518 40.6786 2.24038 40.1177 2.24038H22.3341L22.7408 1.83363C23.1374 1.43703 23.1374 0.793932 22.7408 0.397228C22.3442 0.000728518 21.7011 0.000728518 21.3044 0.397228L19.1639 2.53776C18.7673 2.93436 18.7673 3.57746 19.1639 3.97416L21.3045 6.11479Z" fill="#40D1F1"/>
<path d="M23.369 12.3823C23.1801 12.5712 23.0714 12.8333 23.0714 13.1004C23.0714 13.3675 23.1801 13.6295 23.369 13.8184C23.5579 14.0072 23.8199 14.116 24.087 14.116C24.3541 14.116 24.6162 14.0073 24.8051 13.8184C24.994 13.6295 25.1027 13.3675 25.1027 13.1004C25.1027 12.8333 24.994 12.5712 24.8051 12.3823C24.6162 12.1925 24.3541 12.0847 24.087 12.0847C23.8199 12.0847 23.5579 12.1925 23.369 12.3823Z" fill="#40D1F1"/>
</g>
<defs>
<filter id="filter0_d" x="0" y="0.0998535" width="60" height="49.8003" filterUnits="userSpaceOnUse" color-interpolation-filters="sRGB">
<feFlood flood-opacity="0" result="BackgroundImageFix"/>
<feColorMatrix in="SourceAlpha" type="matrix" values="0 0 0 0 0 0 0 0 0 0 0 0 0 0 0 0 0 0 127 0" result="hardAlpha"/>
<feOffset dy="4"/>
<feGaussianBlur stdDeviation="2"/>
<feComposite in2="hardAlpha" operator="out"/>
<feColorMatrix type="matrix" values="0 0 0 0 0 0 0 0 0 0 0 0 0 0 0 0 0 0 0.25 0"/>
<feBlend mode="normal" in2="BackgroundImageFix" result="effect1_dropShadow"/>
<feBlend mode="normal" in="SourceGraphic" in2="effect1_dropShadow" result="shape"/>
</filter>
</defs>
</svg>
